<svg width="17" height="17" viewBox="0 0 17 17" fill="none" xmlns="http://www.w3.org/2000/svg">
<path d="M5.86667 0C3.68333 0 1.90833 1.775 1.90833 3.95833C1.90833 6.1 3.58333 7.83333 5.76667 7.90833C5.83333 7.9 5.9 7.9 5.95 7.90833C5.96667 7.90833 5.975 7.90833 5.99167 7.90833C6 7.90833 6 7.90833 6.00833 7.90833C8.14167 7.83333 9.81667 6.1 9.825 3.95833C9.825 1.775 8.05 0 5.86667 0Z" fill="white"/>
<path d="M10.1 10.125C7.775 8.575 3.98333 8.575 1.64167 10.125C0.583333 10.8333 0 11.7917 0 12.8167C0 13.8417 0.583333 14.7917 1.63333 15.4917C2.8 16.275 4.33333 16.6667 5.86667 16.6667C7.4 16.6667 8.93333 16.275 10.1 15.4917C11.15 14.7833 11.7333 13.8333 11.7333 12.8C11.725 11.775 11.15 10.825 10.1 10.125Z" fill="white"/>
<path d="M15.025 4.45C15.1583 6.06667 14.0083 7.48333 12.4167 7.675C12.4083 7.675 12.4083 7.675 12.4 7.675H12.375C12.325 7.675 12.275 7.675 12.2333 7.69167C11.425 7.73333 10.6833 7.475 10.125 7C10.9833 6.23333 11.475 5.08333 11.375 3.83333C11.3167 3.15833 11.0833 2.54167 10.7333 2.01667C11.05 1.85833 11.4167 1.75833 11.7917 1.725C13.425 1.58333 14.8833 2.8 15.025 4.45Z" fill="white"/>
<path d="M16.6917 12.1583C16.625 12.9667 16.1083 13.6667 15.2417 14.1417C14.4083 14.6 13.3583 14.8167 12.3167 14.7917C12.9167 14.25 13.2667 13.575 13.3333 12.8583C13.4167 11.825 12.925 10.8333 11.9417 10.0417C11.3833 9.6 10.7333 9.25 10.025 8.99167C11.8667 8.45833 14.1833 8.81667 15.6083 9.96667C16.375 10.5833 16.7667 11.3583 16.6917 12.1583Z" fill="white"/>
</svg>
