<svg width="18" height="18" viewBox="0 0 18 18" fill="none" xmlns="http://www.w3.org/2000/svg">
<path d="M12.0852 17.9167H5.41848C1.56848 17.9167 0.851817 16.125 0.668484 14.3833L0.0434838 7.70833C-0.0481829 6.83333 -0.0731827 5.54167 0.793484 4.575C1.54348 3.74167 2.78515 3.34167 4.58515 3.34167H12.9185C14.7268 3.34167 15.9685 3.75 16.7102 4.575C17.5768 5.54167 17.5518 6.83333 17.4602 7.71667L16.8352 14.375C16.6518 16.125 15.9352 17.9167 12.0852 17.9167ZM4.58515 4.58333C3.17682 4.58333 2.21015 4.85833 1.71848 5.40833C1.31015 5.85833 1.17682 6.55 1.28515 7.58333L1.91015 14.2583C2.05182 15.575 2.41015 16.6667 5.41848 16.6667H12.0852C15.0852 16.6667 15.4518 15.575 15.5935 14.25L16.2185 7.59167C16.3268 6.55 16.1935 5.85833 15.7852 5.40833C15.2935 4.85833 14.3268 4.58333 12.9185 4.58333H4.58515Z" fill="white"/>
<path d="M12.0852 4.58333C11.7435 4.58333 11.4602 4.3 11.4602 3.95833V3.29167C11.4602 1.80833 11.4602 1.25 9.41848 1.25H8.08515C6.04348 1.25 6.04348 1.80833 6.04348 3.29167V3.95833C6.04348 4.3 5.76015 4.58333 5.41848 4.58333C5.07682 4.58333 4.79348 4.3 4.79348 3.95833V3.29167C4.79348 1.825 4.79348 0 8.08515 0H9.41848C12.7102 0 12.7102 1.825 12.7102 3.29167V3.95833C12.7102 4.3 12.4268 4.58333 12.0852 4.58333Z" fill="white"/>
<path d="M8.75182 12.9167C6.46015 12.9167 6.46015 11.5 6.46015 10.65V9.79167C6.46015 8.61667 6.74348 8.33333 7.91848 8.33333H9.58515C10.7602 8.33333 11.0435 8.61667 11.0435 9.79167V10.625C11.0435 11.4917 11.0435 12.9167 8.75182 12.9167ZM7.71015 9.58333C7.71015 9.65 7.71015 9.725 7.71015 9.79167V10.65C7.71015 11.5083 7.71015 11.6667 8.75182 11.6667C9.79348 11.6667 9.79348 11.5333 9.79348 10.6417V9.79167C9.79348 9.725 9.79348 9.65 9.79348 9.58333C9.72682 9.58333 9.65182 9.58333 9.58515 9.58333H7.91848C7.85182 9.58333 7.77682 9.58333 7.71015 9.58333Z" fill="white"/>
<path d="M10.4185 11.2667C10.1102 11.2667 9.83515 11.0333 9.80182 10.7167C9.76015 10.375 10.0018 10.0583 10.3435 10.0167C12.5435 9.74167 14.6518 8.90833 16.4268 7.61667C16.7018 7.40833 17.0935 7.475 17.3018 7.75833C17.5018 8.03333 17.4435 8.425 17.1602 8.63333C15.2102 10.05 12.9102 10.9583 10.4935 11.2667C10.4685 11.2667 10.4435 11.2667 10.4185 11.2667Z" fill="white"/>
<path d="M7.08515 11.275C7.06015 11.275 7.03515 11.275 7.01015 11.275C4.72682 11.0167 2.50182 10.1833 0.576817 8.86667C0.293484 8.675 0.218484 8.28333 0.410151 8C0.601817 7.71667 0.993484 7.64167 1.27682 7.83333C3.03515 9.03333 5.06015 9.79167 7.14348 10.0333C7.48515 10.075 7.73515 10.3833 7.69348 10.725C7.66848 11.0417 7.40182 11.275 7.08515 11.275Z" fill="white"/>
</svg>
